<?xml version="1.0" standalone="no"?>
<!DOCTYPE svg PUBLIC "-//W3C//DTD SVG 1.1//EN" "http://www.w3.org/Graphics/SVG/1.1/DTD/svg11.dtd">
<svg width="80mm" height="80mm" viewBox="-40 -40 80 80" xmlns="http://www.w3.org/2000/svg" version="1.1">
<title>OpenSCAD Model</title>
<path d="
M -5,22.5 L 5,22.5 L 5,40 L 10,40 L 10,22.5 L 22.5,22.5
 L 22.5,10 L 40,10 L 40,5 L 22.5,5 L 22.5,-5 L 40,-5
 L 40,-10 L 22.5,-10 L 22.5,-22.5 L 10,-22.5 L 10,-40 L 5,-40
 L 5,-22.5 L -5,-22.5 L -5,-40 L -10,-40 L -10,-22.5 L -22.5,-22.5
 L -22.5,-10 L -40,-10 L -40,-5 L -22.5,-5 L -22.5,5 L -40,5
 L -40,10 L -22.5,10 L -22.5,22.5 L -10,22.5 L -10,40 L -5,40
 z
M 11.3819,-18.8762 L 11.1508,-18.9253 L 10.935,-19.0214 L 10.7439,-19.1602 L 10.5858,-19.3358 L 10.4677,-19.5404
 L 10.3947,-19.765 L 10.37,-20 L 10.3947,-20.2349 L 10.4677,-20.4596 L 10.5858,-20.6642 L 10.7439,-20.8398
 L 10.935,-20.9786 L 11.1508,-21.0747 L 11.3819,-21.1238 L 11.6181,-21.1238 L 11.8492,-21.0747 L 12.065,-20.9786
 L 12.2561,-20.8398 L 12.4142,-20.6642 L 12.5323,-20.4596 L 12.6053,-20.2349 L 12.63,-20 L 12.6053,-19.765
 L 12.5323,-19.5404 L 12.4142,-19.3358 L 12.2561,-19.1602 L 12.065,-19.0214 L 11.8492,-18.9253 L 11.6181,-18.8762
 z
M -11.6181,-18.8762 L -11.8492,-18.9253 L -12.065,-19.0214 L -12.2561,-19.1602 L -12.4142,-19.3358 L -12.5323,-19.5404
 L -12.6053,-19.765 L -12.63,-20 L -12.6053,-20.2349 L -12.5323,-20.4596 L -12.4142,-20.6642 L -12.2561,-20.8398
 L -12.065,-20.9786 L -11.8492,-21.0747 L -11.6181,-21.1238 L -11.3819,-21.1238 L -11.1508,-21.0747 L -10.935,-20.9786
 L -10.7439,-20.8398 L -10.5858,-20.6642 L -10.4677,-20.4596 L -10.3947,-20.2349 L -10.37,-20 L -10.3947,-19.765
 L -10.4677,-19.5404 L -10.5858,-19.3358 L -10.7439,-19.1602 L -10.935,-19.0214 L -11.1508,-18.9253 L -11.3819,-18.8762
 z
M -3.375,-18.2 L -3.375,-20.8 L -2.22499,-20.8 L -2.22499,-18.2 z
M 2.22499,-18.2 L 2.22499,-20.8 L 3.375,-20.8 L 3.375,-18.2 z
M -15,15 L -15,-15 L 15,-15 L 15,15 z
M -20.2349,-10.3947 L -20.4596,-10.4677 L -20.6642,-10.5858 L -20.8398,-10.7439 L -20.9786,-10.935 L -21.0747,-11.1508
 L -21.1238,-11.3819 L -21.1238,-11.6181 L -21.0747,-11.8492 L -20.9786,-12.065 L -20.8398,-12.2561 L -20.6642,-12.4142
 L -20.4596,-12.5323 L -20.2349,-12.6053 L -20,-12.63 L -19.765,-12.6053 L -19.5404,-12.5323 L -19.3358,-12.4142
 L -19.1602,-12.2561 L -19.0214,-12.065 L -18.9253,-11.8492 L -18.8762,-11.6181 L -18.8762,-11.3819 L -18.9253,-11.1508
 L -19.0214,-10.935 L -19.1602,-10.7439 L -19.3358,-10.5858 L -19.5404,-10.4677 L -19.765,-10.3947 L -20,-10.37
 z
M 19.765,-10.3947 L 19.5404,-10.4677 L 19.3358,-10.5858 L 19.1602,-10.7439 L 19.0214,-10.935 L 18.9253,-11.1508
 L 18.8762,-11.3819 L 18.8762,-11.6181 L 18.9253,-11.8492 L 19.0214,-12.065 L 19.1602,-12.2561 L 19.3358,-12.4142
 L 19.5404,-12.5323 L 19.765,-12.6053 L 20,-12.63 L 20.2349,-12.6053 L 20.4596,-12.5323 L 20.6642,-12.4142
 L 20.8398,-12.2561 L 20.9786,-12.065 L 21.0747,-11.8492 L 21.1238,-11.6181 L 21.1238,-11.3819 L 21.0747,-11.1508
 L 20.9786,-10.935 L 20.8398,-10.7439 L 20.6642,-10.5858 L 20.4596,-10.4677 L 20.2349,-10.3947 L 20,-10.37
 z
M 18.2,-2.22499 L 18.2,-3.375 L 20.8,-3.375 L 20.8,-2.22499 z
M -20.8,-2.22499 L -20.8,-3.375 L -18.2,-3.375 L -18.2,-2.22499 z
M 18.2,3.375 L 18.2,2.22499 L 20.8,2.22499 L 20.8,3.375 z
M -20.8,3.375 L -20.8,2.22499 L -18.2,2.22499 L -18.2,3.375 z
M -20.2349,12.6053 L -20.4596,12.5323 L -20.6642,12.4142 L -20.8398,12.2561 L -20.9786,12.065 L -21.0747,11.8492
 L -21.1238,11.6181 L -21.1238,11.3819 L -21.0747,11.1508 L -20.9786,10.935 L -20.8398,10.7439 L -20.6642,10.5858
 L -20.4596,10.4677 L -20.2349,10.3947 L -20,10.37 L -19.765,10.3947 L -19.5404,10.4677 L -19.3358,10.5858
 L -19.1602,10.7439 L -19.0214,10.935 L -18.9253,11.1508 L -18.8762,11.3819 L -18.8762,11.6181 L -18.9253,11.8492
 L -19.0214,12.065 L -19.1602,12.2561 L -19.3358,12.4142 L -19.5404,12.5323 L -19.765,12.6053 L -20,12.63
 z
M 19.765,12.6053 L 19.5404,12.5323 L 19.3358,12.4142 L 19.1602,12.2561 L 19.0214,12.065 L 18.9253,11.8492
 L 18.8762,11.6181 L 18.8762,11.3819 L 18.9253,11.1508 L 19.0214,10.935 L 19.1602,10.7439 L 19.3358,10.5858
 L 19.5404,10.4677 L 19.765,10.3947 L 20,10.37 L 20.2349,10.3947 L 20.4596,10.4677 L 20.6642,10.5858
 L 20.8398,10.7439 L 20.9786,10.935 L 21.0747,11.1508 L 21.1238,11.3819 L 21.1238,11.6181 L 21.0747,11.8492
 L 20.9786,12.065 L 20.8398,12.2561 L 20.6642,12.4142 L 20.4596,12.5323 L 20.2349,12.6053 L 20,12.63
 z
M -3.375,20.8 L -3.375,18.2 L -2.22499,18.2 L -2.22499,20.8 z
M 2.22499,20.8 L 2.22499,18.2 L 3.375,18.2 L 3.375,20.8 z
M -11.6181,21.1238 L -11.8492,21.0747 L -12.065,20.9786 L -12.2561,20.8398 L -12.4142,20.6642 L -12.5323,20.4596
 L -12.6053,20.2349 L -12.63,20 L -12.6053,19.765 L -12.5323,19.5404 L -12.4142,19.3358 L -12.2561,19.1602
 L -12.065,19.0214 L -11.8492,18.9253 L -11.6181,18.8762 L -11.3819,18.8762 L -11.1508,18.9253 L -10.935,19.0214
 L -10.7439,19.1602 L -10.5858,19.3358 L -10.4677,19.5404 L -10.3947,19.765 L -10.37,20 L -10.3947,20.2349
 L -10.4677,20.4596 L -10.5858,20.6642 L -10.7439,20.8398 L -10.935,20.9786 L -11.1508,21.0747 L -11.3819,21.1238
 z
M 11.3819,21.1238 L 11.1508,21.0747 L 10.935,20.9786 L 10.7439,20.8398 L 10.5858,20.6642 L 10.4677,20.4596
 L 10.3947,20.2349 L 10.37,20 L 10.3947,19.765 L 10.4677,19.5404 L 10.5858,19.3358 L 10.7439,19.1602
 L 10.935,19.0214 L 11.1508,18.9253 L 11.3819,18.8762 L 11.6181,18.8762 L 11.8492,18.9253 L 12.065,19.0214
 L 12.2561,19.1602 L 12.4142,19.3358 L 12.5323,19.5404 L 12.6053,19.765 L 12.63,20 L 12.6053,20.2349
 L 12.5323,20.4596 L 12.4142,20.6642 L 12.2561,20.8398 L 12.065,20.9786 L 11.8492,21.0747 L 11.6181,21.1238
 z
" stroke="black" fill="none" stroke-width="0.1"/>
</svg>
